<?xml version="1.0" encoding="UTF-8"?>
<!DOCTYPE svg PUBLIC "-//W3C//DTD SVG 1.1//EN"
  "http://www.w3.org/Graphics/SVG/1.1/DTD/svg11.dtd">
<!-- Created with Inkpad (http://www.taptrix.com/) --><svg xmlns:inkpad="http://taptrix.com/inkpad/svg_extensions" height="135pt" xmlns:xlink="http://www.w3.org/1999/xlink" xmlns="http://www.w3.org/2000/svg" width="135pt" version="1.1" viewBox="0,0,135,135">
<defs/>
<g id="Untitled" inkpad:layerName="Untitled">
<g opacity="1">
<path d="M97.9248+0L37.3232+0C16.7432+0+0+16.744+0+37.324L0+97.9256C0+118.506+16.7432+135.25+37.3232+135.25L97.9248+135.25C118.506+135.25+135.25+118.506+135.25+97.9256L135.25+37.324C135.25+16.744+118.506+0+97.9248+0ZM123.25+97.9256C123.25+111.89+111.89+123.25+97.9256+123.25L37.3232+123.25C23.36+123.25+12+111.89+12+97.9256L12+37.324C12+23.3608+23.36+12+37.3232+12L97.9248+12C111.889+12+123.25+23.3608+123.25+37.324L123.25+97.9256L123.25+97.9256Z" opacity="1" fill="#000000"/>
<path d="M67.6248+32.776C48.408+32.776+32.7744+48.4096+32.7744+67.6264C32.7744+86.8424+48.408+102.475+67.6248+102.475C86.8416+102.475+102.475+86.8424+102.475+67.6264C102.475+48.4096+86.8416+32.776+67.6248+32.776ZM67.6248+90.4744C55.0256+90.4744+44.7744+80.2248+44.7744+67.6256C44.7744+55.0256+55.0248+44.7752+67.6248+44.7752C80.2248+44.7752+90.4752+55.0256+90.4752+67.6256C90.4752+80.2248+80.224+90.4744+67.6248+90.4744Z" opacity="1" fill="#000000"/>
<path d="M103.937+22.6008C101.625+22.6008+99.3536+23.5368+97.7208+25.1768C96.08+26.8088+95.1368+29.0808+95.1368+31.4008C95.1368+33.7136+96.0808+35.9848+97.7208+37.6248C99.3528+39.2568+101.625+40.2008+103.937+40.2008C106.257+40.2008+108.521+39.2568+110.161+37.6248C111.801+35.9848+112.737+33.7128+112.737+31.4008C112.737+29.0808+111.801+26.8088+110.161+25.1768C108.529+23.5368+106.257+22.6008+103.937+22.6008Z" opacity="1" fill="#000000"/>
</g>
</g>
</svg>
